<?xml version="1.0" encoding="UTF-8" standalone="no"?>
<svg
   data-noselect=""
   viewBox="0 0 128 128"
   width="128"
   height="128"
   preserveAspectRatio="none"
   version="1.1"
   class="svg-canvas"
   id="svg57"
   sodipodi:docname="acu.fund.ico.svg"
   inkscape:version="1.1.2 (76b9e6a115, 2022-02-25)"
   xmlns:inkscape="http://www.inkscape.org/namespaces/inkscape"
   xmlns:sodipodi="http://sodipodi.sourceforge.net/DTD/sodipodi-0.dtd"
   xmlns="http://www.w3.org/2000/svg"
   xmlns:svg="http://www.w3.org/2000/svg">
  <sodipodi:namedview
     id="namedview59"
     pagecolor="#ffffff"
     bordercolor="#666666"
     borderopacity="1.0"
     inkscape:pageshadow="2"
     inkscape:pageopacity="0.0"
     inkscape:pagecheckerboard="true"
     showgrid="false"
     inkscape:zoom="2"
     inkscape:cx="25.25"
     inkscape:cy="3.25"
     inkscape:window-width="1848"
     inkscape:window-height="1009"
     inkscape:window-x="72"
     inkscape:window-y="34"
     inkscape:window-maximized="1"
     inkscape:current-layer="svg57" />
  <defs
     id="defs2" />
  <g
     id="g13"
     style="fill:#aa0000"
     transform="matrix(0.62436231,0,0,0.57918999,3.7265844,4.4827781)">
    <path
       d="m 125,16.2 c 22.4,0 42.9,8.5 58.3,22.5 C 164.5,15.1 135.4,0 102.8,0 60.8,0 24.6,25.2 8.6,61.4 8.3,62.2 7.9,63 7.6,63.8 7.3,64.4 7.1,65.1 6.8,65.7 6.5,66.5 6.2,67.4 5.9,68.2 5.7,68.9 5.4,69.6 5.2,70.2 4.3,72.8 3.6,75.4 2.9,78.1 2.8,78.6 2.6,79.1 2.5,79.6 1.9,82.4 1.4,85.2 1,88 0.9,88.5 0.9,89 0.8,89.5 0.7,90.6 0.5,91.7 0.4,92.8 0.3,93.4 0.3,94 0.2,94.7 0.2,95.3 0.1,95.9 0.1,96.5 0.1,97.3 0,98.1 0,99 v 0 c 9.6,-1.8 21.2,-2.2 35.9,-2.7 7.8,-0.2 16.5,-0.5 26.2,-1 42.4,-2.1 41,-45.2 41,-45.2 -12.1,8.2 -31.9,9.5 -53.4,9.9 1,-1.7 2,-3.4 3.1,-5 15.5,-23.4 42,-38.8 72.2,-38.8 z"
       fill="#56aa36"
       stroke-width="0"
       id="path9"
       style="fill:#aa0000" />
    <path
       d="m 125.5,189.6 c -28.2,0 -53.3,-13.5 -69.1,-34.4 6.4,-0.4 13.1,-1.5 20.2,-4.1 20.6,-7.6 26.6,-19.8 27.2,-37.8 0,0 -6.4,12.5 -56.3,8.5 -2.3,-0.2 -4.5,-0.3 -6.7,-0.3 -8.1,-0.2 -15.4,0.5 -21.9,1.8 -5.7,1.2 -10.7,2.9 -15.2,5 2.6,10.2 6.8,19.9 12.2,28.7 0.3,0.4 0.5,0.8 0.8,1.2 v 0 c 0.8,1.1 4.5,6.5 13.8,17.4 17,20.1 44.3,30.1 72.7,30.1 32.6,0 61.7,-15.2 80.6,-38.9 -15.3,14.2 -35.8,22.8 -58.3,22.8 z"
       fill="#421cc6"
       stroke-width="0"
       id="path11"
       style="fill:#aa0000" />
  </g>
  <g
     id="shape_C4V42wBDKu"
     transform="matrix(0.25382426,0,0,0.76455869,58.152525,-114.32213)"
     filter=""
     style="fill:#aa0000">
    <g
       id="g29"
       style="fill:#aa0000">
      <svg
         version="1.1"
         width="444.48001"
         height="456.22"
         viewBox="0 0 444.48 456.22"
         id="svg27"
         style="fill:#aa0000">
        <g
           data-width="190.10999999999999"
           transform="translate(63.37)"
           id="g25"
           style="fill:#aa0000">
          <path
             d="M 3.03,-20.86 V 1.55 q 0,1.42 1.43,1.42 v 0 h 6.68 q 1.42,0 1.42,-1.42 v 0 -12.94 H 50.75 V 1.55 q 0,1.42 1.42,1.42 v 0 h 6.68 q 1.43,0 1.43,-1.42 v 0 -22.41 q 0,-0.49 -0.25,-0.86 v 0 L 43.69,-44.19 q -0.43,-0.55 -1.18,-0.55 v 0 H 20.79 q -0.68,0 -1.11,0.55 v 0 L 3.34,-21.72 q -0.31,0.37 -0.31,0.86 z m 47.72,5.95 H 12.56 v -2.85 q 0,-0.5 0.31,-0.87 v 0 L 28.84,-40.6 q 0.43,-0.55 1.17,-0.55 v 0 h 3.35 q 0.68,0 1.11,0.55 v 0 l 16.03,21.97 q 0.25,0.37 0.25,0.87 v 0 z"
             transform="translate(0,251.11)"
             fill="#421cc6"
             stroke="#421cc6"
             stroke-width="0.106"
             data-glyph-w="63.37"
             data-glyph-h="61.884765625"
             data-glyph-ascender="54.45859375"
             data-glyph-descender="-7.426171875"
             id="path19"
             style="fill:#aa0000" />
          <path
             d="M 58.85,-44.74 H 10.21 q -1.79,0 -3.59,0.86 v 0 q -3.59,1.8 -3.59,6.25 v 0 33.42 q 0,1.8 0.93,3.59 v 0 q 1.8,3.59 6.25,3.59 v 0 h 48.64 q 1.43,0 1.43,-1.42 v 0 -0.75 q 0,-1.42 -1.43,-1.42 v 0 H 14.98 q -2.42,0 -2.42,-2.41 v 0 -35.77 q 0,-2.35 2.42,-2.35 v 0 h 43.87 q 1.43,0 1.43,-1.49 v 0 -0.68 q 0,-1.42 -1.43,-1.42 z"
             transform="translate(63.37,251.11)"
             fill="#421cc6"
             stroke="#421cc6"
             stroke-width="0.106"
             data-glyph-w="63.37"
             data-glyph-h="61.884765625"
             data-glyph-ascender="54.45859375"
             data-glyph-descender="-7.426171875"
             id="path21"
             style="fill:#aa0000" />
          <path
             d="m 3.03,-43.38 v 39.11 q 0,4.46 3.59,6.25 v 0 q 1.8,0.93 3.59,0.93 v 0 h 42.95 q 1.79,0 3.59,-0.93 v 0 q 3.53,-1.79 3.53,-6.25 v 0 -39.11 q 0,-1.42 -1.43,-1.42 v 0 h -6.68 q -1.42,0 -1.42,1.42 v 0 40.29 q 0,2.41 -2.36,2.41 v 0 H 14.98 q -2.42,0 -2.42,-2.41 v 0 -40.29 q 0,-1.42 -1.42,-1.42 v 0 H 4.46 q -1.43,0 -1.43,1.42 z"
             transform="translate(126.74,251.11)"
             fill="#421cc6"
             stroke="#421cc6"
             stroke-width="0.106"
             data-glyph-w="63.37"
             data-glyph-h="61.884765625"
             data-glyph-ascender="54.45859375"
             data-glyph-descender="-7.426171875"
             id="path23"
             style="fill:#aa0000" />
        </g>
      </svg>
    </g>
  </g>
  <g
     id="shape_l8SRQQAi7C"
     transform="matrix(0.78300812,0,0,1.2662762,69.956039,18.053748)"
     filter=""
     style="fill:#aa0000">
    <g
       id="g44"
       style="fill:#aa0000">
      <svg
         version="1.1"
         width="118.36"
         height="129.53999"
         viewBox="0 0 118.36 129.54"
         id="svg42"
         style="fill:#aa0000">
        <g
           data-width="45.101337890625"
           transform="translate(18.09)"
           id="g40"
           style="fill:#aa0000">
          <path
             d="m 0.88,-14.7 h 8.11 v 1.8 h -6.3 v 3.61 h 6.3 v 1.8 h -6.3 v 5.41 H 0.88 Z"
             transform="translate(0,70.27)"
             fill="#421cc6"
             stroke="#421cc6"
             stroke-width="0.03"
             data-glyph-w="9.521982421875"
             data-glyph-h="18.849638671875"
             data-glyph-ascender="15.15744140625"
             data-glyph-descender="-3.692197265625"
             id="path32"
             style="fill:#aa0000" />
          <path
             d="m 5.84,-1.85 q 2.06,0 3.51,-1.2 v 0 q 1.44,-1.18 1.44,-2.86 v 0 -8.79 h -1.8 v 8.79 q 0,0.93 -0.92,1.59 v 0 q -0.92,0.66 -2.23,0.66 v 0 q -1.31,0 -2.23,-0.66 v 0 Q 2.69,-4.98 2.69,-5.91 v 0 -8.79 H 0.88 v 8.79 q 0,1.68 1.45,2.86 v 0 q 1.46,1.2 3.51,1.2 z"
             transform="translate(9.5219824,70.27)"
             fill="#421cc6"
             stroke="#421cc6"
             stroke-width="0.03"
             data-glyph-w="11.677236328125"
             data-glyph-h="18.849638671875"
             data-glyph-ascender="15.15744140625"
             data-glyph-descender="-3.692197265625"
             id="path34"
             style="fill:#aa0000" />
          <path
             d="M 2.67,-14.7 H 0.88 v 12.62 h 1.81 v -9.38 l 6.32,9.38 h 1.78 V -14.7 h -1.8 v 9.37 z"
             transform="translate(21.199219,70.27)"
             fill="#421cc6"
             stroke="#421cc6"
             stroke-width="0.03"
             data-glyph-w="11.677236328125"
             data-glyph-h="18.849638671875"
             data-glyph-ascender="15.15744140625"
             data-glyph-descender="-3.692197265625"
             id="path36"
             style="fill:#aa0000" />
          <path
             d="M 6.07,-2.08 H 0.88 V -14.7 h 5.19 q 2.33,0 3.98,1.85 v 0 q 1.64,1.84 1.64,4.46 v 0 q 0,2.61 -1.64,4.46 v 0 Q 8.4,-2.08 6.07,-2.08 Z m 0,-10.82 H 2.69 v 9.01 h 3.38 q 1.58,0 2.7,-1.31 v 0 q 1.12,-1.33 1.12,-3.19 v 0 q 0,-1.87 -1.12,-3.19 v 0 Q 7.65,-12.9 6.07,-12.9 Z"
             transform="translate(32.876455,70.27)"
             fill="#421cc6"
             stroke="#421cc6"
             stroke-width="0.03"
             data-glyph-w="12.2248828125"
             data-glyph-h="18.849638671875"
             data-glyph-ascender="15.15744140625"
             data-glyph-descender="-3.692197265625"
             id="path38"
             style="fill:#aa0000" />
        </g>
      </svg>
    </g>
  </g>
  <defs
     id="defs53">
    <pattern
       id="wm_tile"
       x="0"
       y="0"
       width="20%"
       height="27%"
       patternunits="objectBoundingBox">
      <g
         id="wm_lm"
         transform="translate(-188.000000, -323.000000)"
         fill="#cccccc">
        <text
           font-size="15"
           transform="translate(270.490979, 373.245789) rotate(-390.000000) translate(-270.490979, -373.245789)"
           id="text49"><tspan
             x="187.490979"
             opacity=".3"
             y="378.245789"
             id="tspan47">copyright © copyright © </tspan></text>
      </g>
    </pattern>
  </defs>
</svg>
