<?xml version="1.0" standalone="no"?>
<!DOCTYPE svg PUBLIC "-//W3C//DTD SVG 20010904//EN"
 "http://www.w3.org/TR/2001/REC-SVG-20010904/DTD/svg10.dtd">
<svg version="1.0" xmlns="http://www.w3.org/2000/svg"
 width="700.000000pt" height="700.000000pt" viewBox="0 0 700.000000 700.000000"
 preserveAspectRatio="xMidYMid meet">
<metadata>
Created by potrace 1.14, written by Peter Selinger 2001-2017
</metadata>
<g transform="translate(0.000000,700.000000) scale(0.100000,-0.100000)"
fill="#000000" stroke="none">
<path d="M3597 6754 c-1 -1 -59 -4 -128 -8 -70 -4 -137 -9 -150 -11 -12 -3
-45 -7 -73 -10 -28 -2 -105 -14 -171 -25 -909 -156 -1718 -642 -2251 -1352
-272 -362 -485 -832 -559 -1233 -10 -49 -19 -99 -21 -109 -5 -28 -23 -163 -29
-221 -12 -119 -13 -155 -5 -160 5 -3 50 1 102 9 51 8 127 18 168 21 41 4 86 8
100 10 23 3 109 9 325 20 129 7 432 17 880 30 539 16 666 25 840 60 292 59
511 171 696 356 187 187 336 484 374 744 4 22 8 47 10 55 12 45 22 217 13 226
-3 2 -43 -16 -89 -40 -139 -74 -367 -143 -599 -181 -131 -22 -136 -23 -215
-31 -38 -3 -77 -8 -85 -9 -8 -2 -60 -6 -115 -10 -55 -4 -116 -9 -135 -10 -19
-2 -123 -7 -230 -10 -107 -4 -228 -8 -267 -10 -41 -1 -73 2 -73 7 0 25 180
268 290 391 188 210 387 374 665 549 229 144 653 313 910 364 11 2 54 10 95
19 99 19 141 25 275 39 146 16 427 21 545 11 170 -15 246 -25 380 -50 465 -87
953 -306 1307 -587 101 -80 70 -41 -97 124 -147 146 -289 264 -456 379 -135
94 -127 89 -248 160 -333 195 -810 372 -1144 425 -20 3 -39 7 -42 9 -4 3 -157
24 -284 40 -92 11 -499 27 -509 19z"/>
<path d="M4340 4615 c-5 -6 -11 -22 -14 -35 -2 -14 -14 -63 -26 -110 -11 -47
-23 -95 -26 -108 -2 -12 -23 -98 -45 -190 -23 -92 -43 -174 -44 -182 -2 -8
-21 -82 -41 -165 l-38 -150 -3 -510 c-1 -281 1 -516 6 -523 10 -16 110 -22
119 -7 3 5 7 141 7 300 l0 290 265 0 264 0 1 -292 c0 -160 4 -295 8 -299 15
-16 108 -11 117 6 4 8 8 236 8 505 0 398 -3 502 -15 555 -8 36 -16 72 -18 80
-2 8 -24 102 -50 208 -26 106 -48 198 -49 205 -2 6 -6 23 -9 37 -10 36 -46
191 -53 220 -3 14 -7 36 -10 49 -3 14 -7 28 -9 31 -2 4 -7 22 -10 41 -3 19
-11 39 -16 44 -14 14 -307 14 -319 0z m198 -177 c11 -38 31 -113 37 -145 6
-26 4 -18 45 -188 17 -71 37 -152 44 -180 84 -306 122 -544 86 -546 -19 -1
-479 -1 -501 0 -12 1 -15 14 -14 74 2 60 18 145 62 317 3 14 7 30 8 35 2 6 15
60 30 120 14 61 28 117 30 125 18 87 97 404 101 411 3 5 18 9 34 9 23 0 30 -6
38 -32z"/>
<path d="M5044 4603 c-13 -13 -32 -49 -41 -81 -17 -53 -18 -120 -18 -872 0
-448 3 -835 7 -860 11 -69 27 -116 47 -141 l19 -23 347 -1 c191 0 351 3 357 6
12 8 19 97 11 128 -5 21 -11 21 -317 21 -171 0 -315 4 -321 8 -5 4 -12 14 -14
22 -9 31 -7 1606 2 1633 l9 27 319 0 c297 0 319 1 320 18 6 65 5 100 -1 117
-7 19 -17 20 -355 20 l-348 1 -23 -23z"/>
<path d="M5864 4606 c-3 -11 -4 -428 -2 -926 l3 -905 22 -54 c40 -98 13 -91
367 -91 261 0 315 2 333 15 21 15 46 71 59 130 7 33 13 1796 6 1833 -4 19 -10
22 -58 22 -31 0 -56 -5 -61 -12 -4 -7 -9 -411 -10 -898 -1 -487 -2 -890 -2
-897 -3 -35 -24 -39 -264 -38 -178 0 -240 4 -249 13 -10 10 -13 195 -14 910 0
494 -3 903 -8 910 -4 7 -28 11 -62 11 -46 -1 -55 -5 -60 -23z"/>
<path d="M3715 3131 c-66 -70 -306 -166 -485 -196 -19 -3 -60 -10 -90 -15 -30
-5 -77 -12 -105 -15 -27 -3 -63 -8 -80 -10 -185 -27 -769 -26 -1115 2 -180 14
-614 7 -760 -13 -149 -20 -263 -40 -344 -60 -34 -8 -70 -17 -82 -19 -63 -14
-324 -108 -324 -117 0 -2 15 -50 34 -108 77 -240 197 -500 329 -711 49 -79
257 -355 286 -379 3 -3 24 -25 45 -50 361 -416 591 -610 946 -797 316 -167
759 -307 1130 -358 25 -4 59 -8 75 -11 17 -2 53 -6 80 -9 28 -2 82 -8 120 -12
94 -10 545 -10 670 0 136 11 398 52 522 82 56 13 112 26 125 29 60 11 298 91
419 139 159 64 351 157 468 227 46 27 88 50 93 50 4 0 8 3 8 8 0 4 12 13 28
20 79 36 392 280 552 431 41 39 82 73 91 76 16 5 59 56 91 106 15 23 37 88 55
160 12 51 11 235 -2 294 -33 151 -93 245 -175 278 -23 9 -75 13 -155 13 l-120
-1 0 -435 0 -435 100 -3 100 -3 -90 -58 c-89 -57 -163 -99 -280 -158 -316
-162 -717 -276 -1090 -310 -107 -10 -501 -10 -595 0 -92 10 -282 37 -290 42
-3 2 -24 6 -48 10 -129 19 -418 108 -597 185 -147 62 -395 193 -403 212 -2 4
-8 8 -13 8 -10 0 -146 92 -234 159 -135 103 -312 269 -423 399 -50 57 -52 62
-30 63 12 1 26 1 30 0 16 -2 254 30 316 44 37 7 79 16 92 18 62 12 254 73 345
109 355 145 569 325 691 581 35 75 78 208 89 274 3 21 7 45 10 53 7 27 26 240
21 240 -1 0 -15 -13 -31 -29z m2625 -1126 c31 -29 64 -92 76 -144 14 -59 13
-220 -1 -269 -26 -88 -64 -145 -106 -162 -29 -12 -178 -20 -180 -10 -1 3 -2
144 -3 313 l-1 308 92 -3 c86 -3 94 -5 123 -33z"/>
<path d="M4641 2150 c-5 -11 -7 -783 -2 -847 1 -8 16 -13 39 -13 l38 0 -1 168
c-1 92 2 176 5 187 7 19 16 20 136 20 l128 0 1 62 2 62 -136 3 -136 3 0 110
c0 61 1 116 3 123 3 9 29 12 91 11 47 0 107 0 132 0 l46 1 -2 58 c-2 31 -3 60
-4 63 0 3 -76 5 -167 5 -138 0 -167 -3 -173 -16z"/>
<path d="M5048 2157 c-3 -7 -4 -160 -3 -342 2 -311 3 -333 23 -385 78 -200
285 -208 374 -15 22 49 23 59 26 401 l3 351 -38 -1 -38 -2 -2 -322 c-1 -290
-3 -326 -20 -360 -25 -51 -76 -84 -124 -78 -47 6 -69 20 -100 64 l-24 35 0
331 0 330 -37 2 c-21 1 -38 -3 -40 -9z"/>
<path d="M5549 2166 c-1 -1 -2 -198 -3 -438 l-1 -438 36 0 c21 0 39 6 41 13 2
6 4 150 3 319 0 169 2 302 6 295 4 -6 64 -150 134 -319 l128 -308 38 0 39 0 0
438 0 439 -34 1 c-25 1 -36 -4 -40 -16 -3 -9 -5 -129 -5 -267 0 -137 0 -275
-1 -305 l-1 -55 -24 60 c-14 33 -74 177 -133 320 l-109 259 -36 1 c-21 1 -38
1 -38 1z"/>
</g>
</svg>
